<svg xmlns="http://www.w3.org/2000/svg" xmlns:xlink="http://www.w3.org/1999/xlink" width="288" height="39" viewBox="0 0 288 39">
    <defs>
        <path id="a" d="M0 0h288v30H0z"/>
        <linearGradient id="c" x1="50%" x2="50%" y1="100%" y2="0%">
            <stop offset="0%" stop-color="#02141E"/>
            <stop offset="100%"/>
        </linearGradient>
    </defs>
    <g fill="none" fill-rule="evenodd">
        <g transform="translate(1 -1)">
            <mask id="b" fill="#fff">
                <use xlink:href="#a"/>
            </mask>
            <g fill="#F44336" fill-rule="nonzero" mask="url(#b)">
                <path d="M.68 13.979c-.375 0-.68.074-.68.166v1.667c0 .092.305.167.68.167.377 0 .682-.075.682-.167v-1.667c0-.092-.305-.166-.681-.166zM4.766 15.979c-.376 0-.68-.032-.68-.072V14.05c0-.04.304-.071.68-.071.376 0 .68.032.68.071v1.857c0 .04-.304.072-.68.072zM8.851 15.979c-.376 0-.68-.02-.68-.046v-1.909c0-.025.304-.045.68-.045.376 0 .681.02.681.045v1.91c0 .024-.305.045-.68.045zM12.936 19.979c-.376 0-.68-.112-.68-.25v-9.5c0-.138.304-.25.68-.25.376 0 .681.112.681.25v9.5c0 .138-.305.25-.68.25zM17.021 21.979c-.376 0-.68-.262-.68-.584V8.562c0-.322.304-.583.68-.583.376 0 .681.261.681.583v12.833c0 .322-.305.584-.68.584zM21.106 23.979c-.375 0-.68-.202-.68-.45v-17.1c0-.249.305-.45.68-.45.376 0 .681.201.681.45v17.1c0 .248-.305.45-.68.45zM25.192 25.979c-.376 0-.681-.411-.681-.917V4.895c0-.506.305-.916.68-.916.376 0 .681.41.681.916v20.167c0 .506-.305.917-.68.917zM29.68 25.085c-.375 0-.68-.747-.68-1.667V6.752c0-.92.305-1.667.68-1.667.377 0 .682.747.682 1.667v16.666c0 .92-.305 1.667-.681 1.667z"/>
            </g>
            <g fill="#F44336" fill-rule="nonzero" mask="url(#b)">
                <path d="M32.68 26.979c-.375 0-.68-.896-.68-2v-20c0-1.104.305-2 .68-2 .377 0 .682.896.682 2v20c0 1.104-.305 2-.681 2zM36.766 24.51a.681.681 0 0 1-.68-.68V6.128a.681.681 0 0 1 1.36 0V23.83c0 .376-.304.68-.68.68zM40.851 25.979c-.376 0-.68-.224-.68-.5v-21c0-.276.304-.5.68-.5.376 0 .681.224.681.5v21c0 .276-.305.5-.68.5zM44.936 28.596a.681.681 0 0 1-.68-.681V2.043a.681.681 0 0 1 1.361 0v25.872c0 .376-.305.68-.68.68zM49.021 20.979c-.376 0-.68-.224-.68-.5v-11c0-.276.304-.5.68-.5.376 0 .681.224.681.5v11c0 .276-.305.5-.68.5zM53.106 21.979c-.375 0-.68-.157-.68-.35v-13.3c0-.193.305-.35.68-.35.376 0 .681.157.681.35v13.3c0 .193-.305.35-.68.35zM57.192 24.979c-.376 0-.681-.374-.681-.834V5.812c0-.46.305-.833.68-.833.376 0 .681.373.681.833v18.333c0 .46-.305.834-.68.834zM61.277 19.064a.681.681 0 0 1-.681-.681v-6.809a.681.681 0 0 1 1.361 0v6.809c0 .376-.305.68-.68.68z"/>
            </g>
            <g fill="#F44336" fill-rule="nonzero" mask="url(#b)">
                <path d="M64.68 21.979c-.375 0-.68-.523-.68-1.167V9.145c0-.644.305-1.166.68-1.166.377 0 .682.522.682 1.166v11.667c0 .644-.305 1.167-.681 1.167zM68.766 24.51a.681.681 0 0 1-.68-.68V6.128a.681.681 0 0 1 1.36 0V23.83c0 .376-.304.68-.68.68zM72.851 22.979c-.376 0-.68-.163-.68-.364V7.342c0-.2.304-.363.68-.363.376 0 .681.163.681.363v15.273c0 .2-.305.364-.68.364zM76.936 28.596a.681.681 0 0 1-.68-.681V2.043a.681.681 0 0 1 1.361 0v25.872c0 .376-.305.68-.68.68zM81.021 26.979c-.376 0-.68-.448-.68-1v-22c0-.552.304-1 .68-1 .376 0 .681.448.681 1v22c0 .552-.305 1-.68 1zM85.106 25.979c-.375 0-.68-.247-.68-.55v-20.9c0-.304.305-.55.68-.55.376 0 .681.246.681.55v20.9c0 .303-.305.55-.68.55zM89.192 23.149a.681.681 0 0 1-.681-.68V7.488a.681.681 0 0 1 1.361 0v14.98c0 .375-.305.68-.68.68zM93.277 20.979c-.376 0-.681-.448-.681-1v-10c0-.552.305-1 .68-1 .376 0 .681.448.681 1v10c0 .552-.305 1-.68 1z"/>
            </g>
            <g fill="#F44336" fill-rule="nonzero" mask="url(#b)">
                <path d="M96.68 23.979c-.375 0-.68-.672-.68-1.5v-15c0-.828.305-1.5.68-1.5.377 0 .682.672.682 1.5v15c0 .828-.305 1.5-.681 1.5zM100.766 20.979c-.376 0-.68-.192-.68-.429V9.407c0-.236.304-.428.68-.428.376 0 .68.192.68.428V20.55c0 .237-.304.429-.68.429zM104.851 25.979c-.376 0-.68-.224-.68-.5v-21c0-.276.304-.5.68-.5.376 0 .681.224.681.5v21c0 .276-.305.5-.68.5zM108.936 28.596a.681.681 0 0 1-.68-.681V2.043a.681.681 0 0 1 1.361 0v25.872c0 .376-.305.68-.68.68zM113.021 23.149a.681.681 0 0 1-.68-.68V7.488a.681.681 0 0 1 1.361 0v14.98c0 .375-.305.68-.68.68zM117.106 28.596a.681.681 0 0 1-.68-.681V2.043a.681.681 0 0 1 1.361 0v25.872c0 .376-.305.68-.68.68zM121.192 23.149a.681.681 0 0 1-.681-.68V7.488a.681.681 0 0 1 1.361 0v14.98c0 .375-.305.68-.68.68zM125.277 21.979c-.376 0-.681-.523-.681-1.167V9.145c0-.644.305-1.166.68-1.166.376 0 .681.522.681 1.166v11.667c0 .644-.305 1.167-.68 1.167z"/>
            </g>
            <g fill="#F44336" fill-rule="nonzero" mask="url(#b)">
                <path d="M157.32 6.021c.375 0 .68.672.68 1.5v15c0 .828-.305 1.5-.68 1.5-.377 0-.682-.672-.682-1.5v-15c0-.828.305-1.5.681-1.5zM153.234 5.49c.376 0 .68.304.68.68v17.702a.681.681 0 0 1-1.36 0V6.17c0-.376.304-.68.68-.68zM149.149 4.021c.376 0 .68.224.68.5v21c0 .276-.304.5-.68.5-.376 0-.681-.224-.681-.5v-21c0-.276.305-.5.68-.5zM145.064 6.021c.376 0 .68.202.68.45v17.1c0 .249-.304.45-.68.45-.376 0-.681-.201-.681-.45v-17.1c0-.248.305-.45.68-.45zM140.979 6.851c.376 0 .68.305.68.68v14.98a.681.681 0 0 1-1.361 0V7.53c0-.375.305-.68.68-.68zM136.894 1.404c.375 0 .68.305.68.681v25.872a.681.681 0 0 1-1.361 0V2.085c0-.376.305-.68.68-.68zM132.808 6.851c.376 0 .681.305.681.68v14.98a.681.681 0 0 1-1.361 0V7.53c0-.375.305-.68.68-.68zM128.723 10.936c.376 0 .681.305.681.681v6.809a.681.681 0 0 1-1.361 0v-6.809c0-.376.305-.68.68-.68z"/>
            </g>
            <g fill="#F44336" fill-rule="nonzero" mask="url(#b)">
                <path d="M160.68 21.979c-.375 0-.68-.523-.68-1.167V9.145c0-.644.305-1.166.68-1.166.377 0 .682.522.682 1.166v11.667c0 .644-.305 1.167-.681 1.167zM164.766 20.979c-.376 0-.68-.192-.68-.429V9.407c0-.236.304-.428.68-.428.376 0 .68.192.68.428V20.55c0 .237-.304.429-.68.429z"/>
                <path d="M164.68 21c-.375 0-.68-.192-.68-.429V9.43c0-.237.305-.429.68-.429.377 0 .682.192.682.429V20.57c0 .237-.305.429-.681.429zM168.851 23.979c-.376 0-.68-.184-.68-.41V6.389c0-.226.304-.41.68-.41.376 0 .681.184.681.41V23.57c0 .225-.305.409-.68.409zM172.936 28.596a.681.681 0 0 1-.68-.681V2.043a.681.681 0 0 1 1.361 0v25.872c0 .376-.305.68-.68.68zM177.021 23.149a.681.681 0 0 1-.68-.68V7.488a.681.681 0 0 1 1.361 0v14.98c0 .375-.305.68-.68.68zM181.106 23.979c-.375 0-.68-.202-.68-.45v-17.1c0-.249.305-.45.68-.45.376 0 .681.201.681.45v17.1c0 .248-.305.45-.68.45zM185.192 23.149a.681.681 0 0 1-.681-.68V7.488a.681.681 0 0 1 1.361 0v14.98c0 .375-.305.68-.68.68zM189.277 20.979c-.376 0-.681-.448-.681-1v-10c0-.552.305-1 .68-1 .376 0 .681.448.681 1v10c0 .552-.305 1-.68 1z"/>
            </g>
            <g fill="#F44336" fill-rule="nonzero" mask="url(#b)">
                <path d="M192.68 22.979c-.375 0-.68-.598-.68-1.334V8.312c0-.736.305-1.333.68-1.333.377 0 .682.597.682 1.333v13.333c0 .736-.305 1.334-.681 1.334zM196.766 24.51a.681.681 0 0 1-.68-.68V6.128a.681.681 0 0 1 1.36 0V23.83c0 .376-.304.68-.68.68zM200.851 26.979c-.376 0-.68-.245-.68-.546V3.524c0-.3.304-.545.68-.545.376 0 .681.244.681.545v22.91c0 .3-.305.545-.68.545zM204.936 24.979c-.376 0-.68-.224-.68-.5v-19c0-.276.304-.5.68-.5.376 0 .681.224.681.5v19c0 .276-.305.5-.68.5zM209.021 23.149a.681.681 0 0 1-.68-.68V7.488a.681.681 0 0 1 1.361 0v14.98c0 .375-.305.68-.68.68zM213.106 25.979c-.375 0-.68-.247-.68-.55v-20.9c0-.304.305-.55.68-.55.376 0 .681.246.681.55v20.9c0 .303-.305.55-.68.55zM217.192 23.149a.681.681 0 0 1-.681-.68V7.488a.681.681 0 0 1 1.361 0v14.98c0 .375-.305.68-.68.68zM221.277 21.979c-.376 0-.681-.523-.681-1.167V9.145c0-.644.305-1.166.68-1.166.376 0 .681.522.681 1.166v11.667c0 .644-.305 1.167-.68 1.167z"/>
            </g>
            <g fill="#F44336" fill-rule="nonzero" mask="url(#b)">
                <path d="M224.68 22.979c-.375 0-.68-.598-.68-1.334V8.312c0-.736.305-1.333.68-1.333.377 0 .682.597.682 1.333v13.333c0 .736-.305 1.334-.681 1.334zM228.766 24.51a.681.681 0 0 1-.68-.68V6.128a.681.681 0 0 1 1.36 0V23.83c0 .376-.304.68-.68.68zM232.851 27.979c-.376 0-.68-.265-.68-.591V2.57c0-.327.304-.591.68-.591.376 0 .681.264.681.59v24.819c0 .326-.305.59-.68.59zM236.936 28.596a.681.681 0 0 1-.68-.681V2.043a.681.681 0 0 1 1.361 0v25.872c0 .376-.305.68-.68.68zM241.021 26.979c-.376 0-.68-.448-.68-1v-22c0-.552.304-1 .68-1 .376 0 .681.448.681 1v22c0 .552-.305 1-.68 1zM245.106 28.596a.681.681 0 0 1-.68-.681V2.043a.681.681 0 0 1 1.361 0v25.872c0 .376-.305.68-.68.68zM249.192 23.149a.681.681 0 0 1-.681-.68V7.488a.681.681 0 0 1 1.361 0v14.98c0 .375-.305.68-.68.68zM253.277 23.979c-.376 0-.681-.672-.681-1.5v-15c0-.828.305-1.5.68-1.5.376 0 .681.672.681 1.5v15c0 .828-.305 1.5-.68 1.5z"/>
            </g>
            <g fill="#F44336" fill-rule="nonzero" mask="url(#b)">
                <path d="M256.68 21.979c-.375 0-.68-.523-.68-1.167V9.145c0-.644.305-1.166.68-1.166.377 0 .682.522.682 1.166v11.667c0 .644-.305 1.167-.681 1.167zM260.766 20.979c-.376 0-.68-.192-.68-.429V9.407c0-.236.304-.428.68-.428.376 0 .68.192.68.428V20.55c0 .237-.304.429-.68.429zM264.851 19.979c-.376 0-.68-.102-.68-.228v-9.545c0-.125.304-.227.68-.227.376 0 .681.102.681.227v9.545c0 .126-.305.228-.68.228zM268.936 17.979c-.376 0-.68-.067-.68-.15v-5.7c0-.083.304-.15.68-.15.376 0 .681.067.681.15v5.7c0 .083-.305.15-.68.15zM273.021 16.979c-.376 0-.68-.075-.68-.167v-3.667c0-.092.304-.166.68-.166.376 0 .681.074.681.166v3.667c0 .092-.305.167-.68.167zM277.106 15.979c-.375 0-.68-.023-.68-.05v-1.9c0-.028.305-.05.68-.05.376 0 .681.022.681.05v1.9c0 .027-.305.05-.68.05zM281.192 15.979c-.376 0-.681-.038-.681-.084v-1.833c0-.046.305-.083.68-.083.376 0 .681.037.681.083v1.833c0 .046-.305.084-.68.084zM285.277 13.979c-.376 0-.681.074-.681.166v1.667c0 .092.305.167.68.167.376 0 .681-.075.681-.167v-1.667c0-.092-.305-.166-.68-.166z"/>
            </g>
        </g>
        <path fill="url(#c)" d="M0 15h288v25H0z" opacity=".383" transform="translate(0 -1)"/>
    </g>
</svg>
